<?xml version="1.0" encoding="UTF-8" standalone="no"?>
<svg
   id="圖層_1"
   height="44.417561"
   viewBox="0 0 256 44.417561"
   width="256"
   version="1.1"
   sodipodi:docname="logo.svg"
   inkscape:version="1.3 (0e150ed, 2023-07-21)"
   xmlns:inkscape="http://www.inkscape.org/namespaces/inkscape"
   xmlns:sodipodi="http://sodipodi.sourceforge.net/DTD/sodipodi-0.dtd"
   xmlns="http://www.w3.org/2000/svg"
   xmlns:svg="http://www.w3.org/2000/svg">
  <defs
     id="defs1" />
  <sodipodi:namedview
     id="namedview1"
     pagecolor="#ffffff"
     bordercolor="#000000"
     borderopacity="0.25"
     inkscape:showpageshadow="2"
     inkscape:pageopacity="0.0"
     inkscape:pagecheckerboard="0"
     inkscape:deskcolor="#d1d1d1"
     inkscape:zoom="0.4609375"
     inkscape:cx="375.32203"
     inkscape:cy="386.16949"
     inkscape:window-width="1512"
     inkscape:window-height="945"
     inkscape:window-x="0"
     inkscape:window-y="37"
     inkscape:window-maximized="0"
     inkscape:current-layer="圖層_1" />
  <g
     id="g8"
     transform="scale(0.270336)">
    <g
       id="g1"
       transform="matrix(0.35536242,0,0,0.35536242,1.527032e-4,-8.8204506)">
      <path
         id="_x30_7"
         d="M 257.763,377.018 438.409,249.709 188.923,204.306 5.438,324.516 Z"
         fill="#f4d177" />
      <path
         id="_x30_6"
         d="M 254.246,250.629 73.6,136.241 323.102,95.435 505.442,202.016 Z"
         fill="#ff6666" />
      <path
         id="_x30_5"
         d="M 190.004,151.886 42.1,58.241 246.375,24.821 396.296,110.846 Z"
         fill="#02a9f4" />
      <path
         id="_x30_4"
         d="m 271.295,384.953 c -2.5,-3.953 -5.919,-6.711 -9.693,-7.42 L 8.261,332.129 c 0,0 10.855,31.389 10.468,52.275 -0.291,16.92 -10.323,48.936 -10.323,48.936 l 253.325,45.404 c 3.774,0.709 7.193,-0.824 9.678,-3.855 2.483,-3.033 4.032,-7.549 4.016,-12.807 l -0.08,-62.871 c -0.001,-5.258 -1.55,-10.34 -4.05,-14.258 z M 503.748,210.29 250.423,251.081 c -3.79,0.646 -7.209,3.113 -9.709,6.677 -2.5,3.549 -4.048,8.081 -4.048,12.807 l -0.064,56.516 c -0.017,4.742 1.516,8.791 4,11.484 2.483,2.742 5.903,4.113 9.677,3.484 L 503.62,301.242 c 0,0 -7.274,-18.032 -9.339,-46.629 -1.355,-18.726 9.467,-44.323 9.467,-44.323 z m -316.986,16.452 207.389,-33.436 c 0,0 -9.113,-15.323 -9.984,-36.613 -0.693,-16.854 10.097,-37.855 10.097,-37.855 l -207.405,33.419 c -3.081,0.517 -5.888,2.549 -7.936,5.452 -2.049,2.887 -3.307,6.597 -3.307,10.483 l -0.064,46.259 c -0.017,3.854 1.242,7.193 3.274,9.419 2.033,2.227 4.839,3.339 7.936,2.872 z"
         fill="#fff3e4" />
      <path
         id="_x30_3"
         d="m 326.301,328.716 -59.377,41.846 c -1.254,-0.515 -2.546,-0.908 -3.871,-1.157 L 9.712,324 c -4.403,-0.807 -8.774,2.186 -9.581,6.67 -0.806,4.492 2.178,8.781 6.678,9.588 l 253.26,45.389 c 1.048,0.201 2.693,1.273 4.258,3.75 1.758,2.742 2.758,6.314 2.758,9.822 l 0.081,62.887 c 0.016,3.072 -0.79,5.896 -2.146,7.549 -0.968,1.154 -1.516,1 -1.839,0.959 L 9.857,425.211 c -4.387,-0.814 -8.774,2.186 -9.581,6.67 -0.807,4.492 2.178,8.781 6.678,9.588 l 253.244,45.387 c 1.146,0.219 2.274,0.324 3.387,0.324 4.446,0 8.65,-1.68 12.095,-4.826 L 447.958,359.276 c 4.936,-3.5 8.226,-10.613 8.209,-19.371 l -0.039,-31.013 z"
         fill="#fbac0f" />
      <path
         id="_x30_2"
         d="m 502.313,293.09 -253.389,40.814 c -0.597,0.121 -1.322,0.104 -2.258,-0.936 -1.129,-1.242 -1.822,-3.428 -1.807,-5.879 l 0.064,-56.525 c 0,-2.822 0.92,-5.758 2.549,-8.064 1.29,-1.83 2.871,-3.032 4.258,-3.266 l 253.325,-40.791 c 4.517,-0.726 7.564,-4.959 6.839,-9.468 -0.726,-4.5 -5.049,-7.621 -9.451,-6.839 0,0 -202.579,32.949 -258.119,42.209 L 210.483,222.917 178.5,228 165.887,194.679 73.6,136.241 c -7.952,2.338 -17.323,13.016 -17.678,25.048 l -0.081,56.952 c 0,7.855 3.274,14.242 8.209,17.387 l 173.682,111.373 c -0.067,-0.043 -0.116,-0.086 -0.18,-0.129 3.21,2.346 6.979,3.588 10.903,3.588 1.032,0 2.081,-0.082 3.129,-0.258 l 253.341,-40.809 c 4.517,-0.725 7.564,-4.959 6.839,-9.467 -0.709,-4.506 -5.08,-7.563 -9.451,-6.836 z"
         fill="#e63431" />
      <path
         id="_x30_1"
         d="m 392.845,185.153 -207.921,33.153 c -0.549,-0.597 -1.113,-1.911 -1.113,-3.847 l 0.064,-46.267 c 0,-2.032 0.646,-4.104 1.791,-5.726 0.968,-1.371 1.984,-1.968 2.5,-2.057 L 395.571,126.99 c 4.517,-0.726 7.564,-4.968 6.839,-9.468 -0.727,-4.508 -5.064,-7.581 -9.452,-6.839 0,0 -210.947,34.306 -212.576,35.109 L 42.1,58.241 C 35.6,60.144 27.923,68.887 27.632,78.725 l -0.484,48.718 c 0,6.468 2.678,11.693 6.726,14.274 0,0 140.626,90.616 146.535,92.625 3.25,1.105 6.757,0.69 7.66,0.553 l 207.389,-33.436 c 4.517,-0.726 7.564,-4.968 6.839,-9.468 -0.727,-4.508 -5.05,-7.58 -9.452,-6.838 z"
         fill="#006ab3" />
    </g>
    <text
       xml:space="preserve"
       style="font-style:italic;font-size:96px;font-family:Comfortaa;-inkscape-font-specification:'Comfortaa Italic';text-align:end;letter-spacing:-0.25px;text-anchor:end;fill:#000000;stroke-width:0.670894;stroke-linecap:round;paint-order:markers stroke fill"
       x="952.05756"
       y="108.4565"
       id="text1"><tspan
         sodipodi:role="line"
         id="tspan1"
         x="951.80756"
         y="108.4565"
         style="font-style:normal;font-variant:normal;font-weight:normal;font-stretch:normal;font-size:96px;font-family:Comfortaa;-inkscape-font-specification:Comfortaa"><tspan
   style="fill:#b3b3b3"
   id="tspan2">@{</tspan><tspan
   style="fill:#2c5aa0"
   id="tspan7">b</tspan>organiser<tspan
   style="fill:#b3b3b3"
   id="tspan6">}</tspan></tspan></text>
  </g>
</svg>
