<?xml version="1.0" encoding="UTF-8" standalone="no"?>
<svg
   id="圖層_1"
   height="44.417561"
   viewBox="0 0 256 44.417561"
   width="256"
   version="1.1"
   sodipodi:docname="logo.svg"
   inkscape:version="1.3 (0e150ed, 2023-07-21)"
   xmlns:inkscape="http://www.inkscape.org/namespaces/inkscape"
   xmlns:sodipodi="http://sodipodi.sourceforge.net/DTD/sodipodi-0.dtd"
   xmlns="http://www.w3.org/2000/svg"
   xmlns:svg="http://www.w3.org/2000/svg">
  <defs
     id="defs1" />
  <sodipodi:namedview
     id="namedview1"
     pagecolor="#ffffff"
     bordercolor="#000000"
     borderopacity="0.25"
     inkscape:showpageshadow="2"
     inkscape:pageopacity="0.0"
     inkscape:pagecheckerboard="0"
     inkscape:deskcolor="#d1d1d1"
     inkscape:zoom="0.4609375"
     inkscape:cx="375.32203"
     inkscape:cy="386.16949"
     inkscape:window-width="1512"
     inkscape:window-height="945"
     inkscape:window-x="0"
     inkscape:window-y="37"
     inkscape:window-maximized="0"
     inkscape:current-layer="圖層_1" />
  <g
     id="g1"
     transform="matrix(0.09606726,0,0,0.09606726,4.1281172e-5,-2.3844853)">
    <path
       id="_x30_7"
       d="M 257.763,377.018 438.409,249.709 188.923,204.306 5.438,324.516 Z"
       fill="#f4d177" />
    <path
       id="_x30_6"
       d="M 254.246,250.629 73.6,136.241 323.102,95.435 505.442,202.016 Z"
       fill="#ff6666" />
    <path
       id="_x30_5"
       d="M 190.004,151.886 42.1,58.241 246.375,24.821 396.296,110.846 Z"
       fill="#02a9f4" />
    <path
       id="_x30_4"
       d="m 271.295,384.953 c -2.5,-3.953 -5.919,-6.711 -9.693,-7.42 L 8.261,332.129 c 0,0 10.855,31.389 10.468,52.275 -0.291,16.92 -10.323,48.936 -10.323,48.936 l 253.325,45.404 c 3.774,0.709 7.193,-0.824 9.678,-3.855 2.483,-3.033 4.032,-7.549 4.016,-12.807 l -0.08,-62.871 c -0.001,-5.258 -1.55,-10.34 -4.05,-14.258 z M 503.748,210.29 250.423,251.081 c -3.79,0.646 -7.209,3.113 -9.709,6.677 -2.5,3.549 -4.048,8.081 -4.048,12.807 l -0.064,56.516 c -0.017,4.742 1.516,8.791 4,11.484 2.483,2.742 5.903,4.113 9.677,3.484 L 503.62,301.242 c 0,0 -7.274,-18.032 -9.339,-46.629 -1.355,-18.726 9.467,-44.323 9.467,-44.323 z m -316.986,16.452 207.389,-33.436 c 0,0 -9.113,-15.323 -9.984,-36.613 -0.693,-16.854 10.097,-37.855 10.097,-37.855 l -207.405,33.419 c -3.081,0.517 -5.888,2.549 -7.936,5.452 -2.049,2.887 -3.307,6.597 -3.307,10.483 l -0.064,46.259 c -0.017,3.854 1.242,7.193 3.274,9.419 2.033,2.227 4.839,3.339 7.936,2.872 z"
       fill="#fff3e4" />
    <path
       id="_x30_3"
       d="m 326.301,328.716 -59.377,41.846 c -1.254,-0.515 -2.546,-0.908 -3.871,-1.157 L 9.712,324 c -4.403,-0.807 -8.774,2.186 -9.581,6.67 -0.806,4.492 2.178,8.781 6.678,9.588 l 253.26,45.389 c 1.048,0.201 2.693,1.273 4.258,3.75 1.758,2.742 2.758,6.314 2.758,9.822 l 0.081,62.887 c 0.016,3.072 -0.79,5.896 -2.146,7.549 -0.968,1.154 -1.516,1 -1.839,0.959 L 9.857,425.211 c -4.387,-0.814 -8.774,2.186 -9.581,6.67 -0.807,4.492 2.178,8.781 6.678,9.588 l 253.244,45.387 c 1.146,0.219 2.274,0.324 3.387,0.324 4.446,0 8.65,-1.68 12.095,-4.826 L 447.958,359.276 c 4.936,-3.5 8.226,-10.613 8.209,-19.371 l -0.039,-31.013 z"
       fill="#fbac0f" />
    <path
       id="_x30_2"
       d="m 502.313,293.09 -253.389,40.814 c -0.597,0.121 -1.322,0.104 -2.258,-0.936 -1.129,-1.242 -1.822,-3.428 -1.807,-5.879 l 0.064,-56.525 c 0,-2.822 0.92,-5.758 2.549,-8.064 1.29,-1.83 2.871,-3.032 4.258,-3.266 l 253.325,-40.791 c 4.517,-0.726 7.564,-4.959 6.839,-9.468 -0.726,-4.5 -5.049,-7.621 -9.451,-6.839 0,0 -202.579,32.949 -258.119,42.209 L 210.483,222.917 178.5,228 165.887,194.679 73.6,136.241 c -7.952,2.338 -17.323,13.016 -17.678,25.048 l -0.081,56.952 c 0,7.855 3.274,14.242 8.209,17.387 l 173.682,111.373 c -0.067,-0.043 -0.116,-0.086 -0.18,-0.129 3.21,2.346 6.979,3.588 10.903,3.588 1.032,0 2.081,-0.082 3.129,-0.258 l 253.341,-40.809 c 4.517,-0.725 7.564,-4.959 6.839,-9.467 -0.709,-4.506 -5.08,-7.563 -9.451,-6.836 z"
       fill="#e63431" />
    <path
       id="_x30_1"
       d="m 392.845,185.153 -207.921,33.153 c -0.549,-0.597 -1.113,-1.911 -1.113,-3.847 l 0.064,-46.267 c 0,-2.032 0.646,-4.104 1.791,-5.726 0.968,-1.371 1.984,-1.968 2.5,-2.057 L 395.571,126.99 c 4.517,-0.726 7.564,-4.968 6.839,-9.468 -0.727,-4.508 -5.064,-7.581 -9.452,-6.839 0,0 -210.947,34.306 -212.576,35.109 L 42.1,58.241 C 35.6,60.144 27.923,68.887 27.632,78.725 l -0.484,48.718 c 0,6.468 2.678,11.693 6.726,14.274 0,0 140.626,90.616 146.535,92.625 3.25,1.105 6.757,0.69 7.66,0.553 l 207.389,-33.436 c 4.517,-0.726 7.564,-4.968 6.839,-9.468 -0.727,-4.508 -5.05,-7.58 -9.452,-6.838 z"
       fill="#006ab3" />
  </g>
  <g
     id="text1"
     style="font-style:italic;font-size:25.9523px;font-family:Comfortaa;-inkscape-font-specification:'Comfortaa Italic';text-align:end;letter-spacing:-0.067584px;text-anchor:end;stroke-width:0.181367;stroke-linecap:round;paint-order:markers stroke fill"
     aria-label="@{borganiser}">
    <path
       style="fill:#b3b3b3"
       d="m 75.612501,35.366582 q -2.906657,0 -5.320221,-0.960235 -2.387612,-0.960235 -4.152368,-2.724991 -1.764756,-1.764757 -2.724991,-4.152368 -0.960235,-2.413564 -0.960235,-5.320222 0,-2.880705 0.960235,-5.294269 0.960235,-2.413563 2.724991,-4.17832 1.764756,-1.764756 4.152368,-2.724991 2.413564,-0.9602352 5.320221,-0.9602352 2.880705,0 5.294269,0.9602352 2.413564,0.960235 4.17832,2.724991 1.764757,1.764757 2.724992,4.17832 0.960235,2.413564 0.960235,5.294269 0,2.387612 -0.648808,4.230225 -0.648807,1.816661 -1.790708,2.854753 -1.115949,1.038092 -2.621182,1.038092 -1.323568,0 -2.179994,-0.804521 -0.830473,-0.778569 -0.830473,-2.050232 v -0.986187 q -0.493094,0.830473 -1.34952,1.479281 -0.830473,0.622855 -1.842613,0.986187 -0.986187,0.363332 -1.998327,0.363332 -2.050232,0 -3.633322,-0.90833 -1.58309,-0.908331 -2.465468,-2.517373 -0.882378,-1.609043 -0.882378,-3.685227 0,-2.076183 0.90833,-3.659274 0.90833,-1.609042 2.491421,-2.517373 1.609042,-0.934282 3.685226,-0.934282 2.076184,0 3.659274,0.934282 1.609043,0.908331 2.517373,2.517373 0.908331,1.583091 0.908331,3.659274 v 4.463796 q 0,0.830473 0.285475,1.24571 0.311428,0.389285 0.856426,0.389285 0.830474,0 1.479281,-0.778569 0.67476,-0.778569 1.038092,-2.154041 0.389285,-1.375472 0.389285,-3.166181 0,-2.439516 -0.830474,-4.463795 -0.804521,-2.050232 -2.309755,-3.529513 -1.479281,-1.505233 -3.529512,-2.309754 -2.02428,-0.830474 -4.463796,-0.830474 -2.465468,0 -4.5157,0.830474 -2.024279,0.804521 -3.529513,2.309754 -1.479281,1.479281 -2.283802,3.529513 -0.804521,2.024279 -0.804521,4.463795 0,2.465469 0.804521,4.515701 0.804521,2.024279 2.283802,3.50356 1.505234,1.505233 3.529513,2.309755 2.050232,0.804521 4.5157,0.804521 1.141901,0 2.413564,-0.259523 1.297615,-0.259523 2.154041,-0.67476 0.67476,-0.311428 1.089996,-0.103809 0.441189,0.233571 0.441189,0.90833 0,0.544999 -0.778568,1.038092 -0.778569,0.493094 -2.154041,0.804522 -1.375472,0.311427 -3.166181,0.311427 z m 0,-8.097117 q 1.479281,0 2.621182,-0.622855 1.141902,-0.648808 1.790709,-1.790709 Q 80.6732,23.714 80.6732,22.208766 q 0,-1.479281 -0.648808,-2.621182 -0.648807,-1.141901 -1.790709,-1.790708 -1.141901,-0.648808 -2.621182,-0.648808 -1.505233,0 -2.647134,0.648808 -1.141901,0.648807 -1.790709,1.790708 -0.622855,1.141901 -0.622855,2.621182 0,1.505234 0.622855,2.647135 0.648808,1.141901 1.790709,1.790709 1.141901,0.622855 2.647134,0.622855 z m 22.58877,8.123069 q -4.048558,0 -4.048558,-4.048558 v -6.072838 q 0,-2.050232 -2.050232,-2.050232 -0.415237,0 -0.726664,-0.285475 -0.285476,-0.285475 -0.285476,-0.700712 0,-0.441189 0.285476,-0.726665 0.311427,-0.285475 0.726664,-0.285475 2.050232,0 2.050232,-2.050232 v -6.072838 q 0,-4.0745105 4.048558,-4.0745105 0.415237,0 0.700712,0.3114276 0.285476,0.2854753 0.285476,0.7266639 0,0.415237 -0.285476,0.700713 -0.285475,0.285475 -0.700712,0.285475 -2.050231,0 -2.050231,2.050231 v 6.072838 q 0,0.986188 -0.259523,1.738805 -0.259523,0.752616 -0.752617,1.323567 1.01214,1.115949 1.01214,3.036419 v 6.072838 q 0,2.024279 2.050231,2.024279 0.415237,0 0.700712,0.285475 0.285476,0.311428 0.285476,0.726665 0,0.441189 -0.285476,0.726664 -0.285475,0.285475 -0.700712,0.285475 z"
       id="path8" />
    <path
       style="fill:#2c5aa0"
       d="m 108.98171,29.449458 q -2.02428,0 -3.65928,-0.934283 -1.60904,-0.934283 -2.56928,-2.543325 -0.93428,-1.634995 -0.96023,-3.659274 V 10.06309 q 0,-0.4671409 0.25952,-0.7266639 0.28548,-0.2854753 0.75262,-0.2854753 0.44119,0 0.70071,0.2854753 0.28548,0.259523 0.28548,0.7266639 v 7.629976 q 0.85642,-1.219758 2.25785,-1.946422 1.42737,-0.752617 3.16618,-0.752617 1.99832,0 3.58141,0.960235 1.58309,0.934283 2.49142,2.569278 0.93429,1.634995 0.93429,3.685226 0,2.076184 -0.96024,3.711179 -0.93428,1.634995 -2.56928,2.59523 -1.63499,0.934283 -3.71117,0.934283 z m 0,-1.816661 q 1.50523,0 2.69903,-0.700712 1.19381,-0.726664 1.86857,-1.946423 0.70071,-1.219758 0.70071,-2.776896 0,-1.531185 -0.70071,-2.750943 -0.67476,-1.245711 -1.86857,-1.946423 -1.1938,-0.700712 -2.69903,-0.700712 -1.47929,0 -2.67309,0.700712 -1.19381,0.700712 -1.86857,1.946423 -0.67476,1.219758 -0.67476,2.750943 0,1.557138 0.67476,2.776896 0.67476,1.219759 1.86857,1.946423 1.1938,0.700712 2.67309,0.700712 z"
       id="path9" />
    <path
       style="font-style:normal;-inkscape-font-specification:Comfortaa"
       d="m 126.5357,29.449458 q -2.07618,0 -3.71118,-0.934283 -1.63499,-0.934283 -2.56927,-2.569277 -0.93429,-1.634995 -0.93429,-3.711179 0,-2.102136 0.93429,-3.737131 0.93428,-1.634995 2.56927,-2.569278 1.635,-0.934283 3.71118,-0.934283 2.07619,0 3.68523,0.934283 1.63499,0.934283 2.56928,2.569278 0.93428,1.634995 0.96023,3.737131 0,2.076184 -0.96023,3.711179 -0.93429,1.634994 -2.56928,2.569277 -1.60904,0.934283 -3.68523,0.934283 z m 0,-1.816661 q 1.50524,0 2.69904,-0.700712 1.19381,-0.700712 1.86857,-1.92047 0.67476,-1.219758 0.67476,-2.776896 0,-1.557138 -0.67476,-2.776896 -0.67476,-1.245711 -1.86857,-1.946423 -1.1938,-0.700712 -2.69904,-0.700712 -1.50523,0 -2.69904,0.700712 -1.1938,0.700712 -1.89451,1.946423 -0.67476,1.219758 -0.67476,2.776896 0,1.557138 0.67476,2.776896 0.70071,1.219758 1.89451,1.92047 1.19381,0.700712 2.69904,0.700712 z m 11.87043,-7.059025 q 0.0779,-1.609043 0.83047,-2.880706 0.77857,-1.271662 1.99833,-1.998327 1.24571,-0.726664 2.75094,-0.726664 1.19381,0 1.84261,0.33738 0.64881,0.33738 0.4931,0.986187 -0.10381,0.389285 -0.36333,0.519046 -0.23358,0.129762 -0.59691,0.103809 -0.33738,-0.02595 -0.77857,-0.0519 -1.45333,-0.129762 -2.59523,0.311427 -1.11595,0.415237 -1.79071,1.297615 -0.6488,0.882379 -0.6488,2.102137 z m 0.15571,8.745924 q -0.46714,0 -0.72666,-0.259523 -0.25953,-0.259523 -0.25953,-0.726664 V 16.109976 q 0,-0.467141 0.25953,-0.726664 0.25952,-0.259523 0.72666,-0.259523 0.46714,0 0.72666,0.259523 0.25953,0.259523 0.25953,0.726664 v 12.223533 q 0,0.467141 -0.25953,0.726664 -0.25952,0.259523 -0.72666,0.259523 z m 16.04873,0.129762 q -2.05023,0 -3.63332,-0.908331 -1.58309,-0.934282 -2.49143,-2.569277 -0.88237,-1.634995 -0.88237,-3.737131 0,-2.128089 0.93428,-3.763084 0.93428,-1.634994 2.56928,-2.543325 1.63499,-0.934283 3.71118,-0.934283 2.10213,0 3.71117,0.934283 1.635,0.908331 2.54333,2.543325 0.93428,1.634995 0.96023,3.763084 l -1.16785,0.622855 q 0,1.92047 -0.80452,3.425703 -0.80452,1.479281 -2.2319,2.335707 -1.40142,0.830474 -3.21808,0.830474 z m 0.25952,5.475935 q -2.05023,0 -3.60737,-0.778569 -1.55714,-0.752617 -2.56928,-2.076184 -0.28547,-0.311427 -0.25952,-0.67476 0.0519,-0.363332 0.38928,-0.596903 0.33738,-0.23357 0.75262,-0.155713 0.41524,0.07786 0.64881,0.389284 0.75262,0.934283 1.92047,1.505234 1.1938,0.57095 2.75094,0.57095 1.45333,0 2.62118,-0.700712 1.16786,-0.700712 1.84262,-1.972375 0.70071,-1.271662 0.70071,-2.984514 v -3.94475 l 0.75262,-1.505233 1.21975,0.233571 v 5.294269 q 0,2.102136 -0.93428,3.763083 -0.93428,1.6869 -2.54332,2.647135 -1.60905,0.986187 -3.68523,0.986187 z m -0.0519,-7.292596 q 1.53118,0 2.69903,-0.67476 1.19381,-0.700712 1.86857,-1.92047 0.67476,-1.219758 0.67476,-2.802848 0,-1.58309 -0.67476,-2.802849 -0.67476,-1.24571 -1.86857,-1.92047 -1.16785,-0.700712 -2.69903,-0.700712 -1.53119,0 -2.725,0.700712 -1.1938,0.67476 -1.86856,1.92047 -0.67476,1.219759 -0.67476,2.802849 0,1.58309 0.67476,2.802848 0.67476,1.219758 1.86856,1.92047 1.19381,0.67476 2.725,0.67476 z m 17.29445,1.816661 q -1.99832,0 -3.58141,-0.934283 -1.5831,-0.960235 -2.51738,-2.59523 -0.90833,-1.634995 -0.90833,-3.685226 0,-2.076184 0.93428,-3.711179 0.96024,-1.634995 2.59523,-2.569278 1.635,-0.960235 3.68523,-0.960235 2.05023,0 3.65928,0.960235 1.63499,0.934283 2.56927,2.569278 0.96024,1.634995 0.98619,3.711179 l -0.80452,0.622855 q 0,1.868565 -0.88238,3.373799 -0.85643,1.479281 -2.36166,2.361659 -1.47928,0.856426 -3.3738,0.856426 z m 0.20762,-1.816661 q 1.50523,0 2.67309,-0.700712 1.1938,-0.700712 1.86856,-1.92047 0.70072,-1.245711 0.70072,-2.776896 0,-1.557138 -0.70072,-2.776896 -0.67476,-1.219758 -1.86856,-1.92047 -1.16786,-0.726665 -2.67309,-0.726665 -1.47928,0 -2.67309,0.726665 -1.1938,0.700712 -1.89451,1.92047 -0.70072,1.219758 -0.70072,2.776896 0,1.531185 0.70072,2.776896 0.70071,1.219758 1.89451,1.92047 1.19381,0.700712 2.67309,0.700712 z m 6.2026,1.686899 q -0.44119,0 -0.72666,-0.259523 -0.28548,-0.285475 -0.28548,-0.726664 v -4.437843 l 0.49309,-2.050232 1.53119,0.389285 v 6.09879 q 0,0.441189 -0.28548,0.726664 -0.28547,0.259523 -0.72666,0.259523 z m 17.00898,0 q -0.44119,0 -0.72666,-0.285475 -0.28548,-0.285475 -0.28548,-0.700712 v -6.747598 q 0,-1.609042 -0.62285,-2.647134 -0.59691,-1.038092 -1.66095,-1.557138 -1.03809,-0.519046 -2.36166,-0.519046 -1.27166,0 -2.30975,0.493094 -1.01214,0.493093 -1.60905,1.349519 -0.5969,0.856426 -0.5969,1.946423 h -1.42738 q 0.0519,-1.634995 0.88238,-2.906658 0.83048,-1.297615 2.20595,-2.024279 1.37547,-0.752617 3.06237,-0.752617 1.84261,0 3.29594,0.778569 1.45333,0.752617 2.2838,2.231898 0.85643,1.479281 0.85643,3.607369 v 6.747598 q 0,0.415237 -0.28548,0.700712 -0.28547,0.285475 -0.70071,0.285475 z m -11.15949,0 q -0.46714,0 -0.75261,-0.259523 -0.25953,-0.285475 -0.25953,-0.726664 V 16.135928 q 0,-0.467141 0.25953,-0.726664 0.28547,-0.285475 0.75261,-0.285475 0.44119,0 0.70072,0.285475 0.28547,0.259523 0.28547,0.726664 v 12.197581 q 0,0.441189 -0.28547,0.726664 -0.25953,0.259523 -0.70072,0.259523 z m 17.91732,0 q -0.46715,0 -0.75262,-0.259523 -0.25952,-0.285475 -0.25952,-0.752616 V 16.135928 q 0,-0.467141 0.25952,-0.726664 0.28547,-0.285475 0.75262,-0.285475 0.44118,0 0.70071,0.285475 0.28547,0.259523 0.28547,0.726664 v 12.171629 q 0,0.467141 -0.28547,0.752616 -0.25953,0.259523 -0.70071,0.259523 z m -0.026,-16.894946 q -0.57095,0 -0.98618,-0.415237 -0.41524,-0.415237 -0.41524,-1.01214 0,-0.648807 0.41524,-1.0121394 0.44118,-0.3892845 1.01214,-0.3892845 0.54499,0 0.96023,0.3892845 0.44119,0.3633324 0.44119,1.0121394 0,0.596903 -0.41524,1.01214 -0.41523,0.415237 -1.01214,0.415237 z m 10.98809,17.024708 q -1.53119,0 -3.03642,-0.519046 -1.50524,-0.519046 -2.43952,-1.557138 -0.28548,-0.311428 -0.23357,-0.700712 0.0519,-0.389285 0.38928,-0.67476 0.36334,-0.259523 0.75262,-0.207618 0.38928,0.0519 0.64881,0.33738 0.62285,0.726664 1.63499,1.115948 1.03809,0.389285 2.28381,0.389285 1.92047,0 2.77689,-0.648807 0.85643,-0.67476 0.88238,-1.609043 0,-0.934283 -0.88238,-1.531186 -0.88238,-0.622855 -2.90666,-0.960235 -2.62118,-0.415237 -3.84094,-1.453329 -1.21975,-1.038091 -1.21975,-2.465468 0,-1.323567 0.70071,-2.205945 0.70071,-0.882379 1.86856,-1.323568 1.16786,-0.441189 2.56928,-0.441189 1.7388,0 2.98451,0.596903 1.27167,0.596903 2.05024,1.609043 0.25952,0.33738 0.20761,0.700712 -0.0519,0.363332 -0.41523,0.596903 -0.31143,0.181666 -0.72667,0.129761 -0.38928,-0.07786 -0.67476,-0.389284 -0.6488,-0.752617 -1.50523,-1.089997 -0.85643,-0.363332 -1.97237,-0.363332 -1.42738,0 -2.28381,0.596903 -0.85642,0.57095 -0.85642,1.453329 0,0.596902 0.31143,1.038092 0.33738,0.441189 1.11594,0.778569 0.80453,0.337379 2.2319,0.57095 1.94642,0.311428 3.06237,0.934283 1.1419,0.596903 1.60905,1.427376 0.49309,0.804522 0.49309,1.764757 0,1.219758 -0.72666,2.15404 -0.70072,0.908331 -1.97238,1.427377 -1.24571,0.519046 -2.8807,0.519046 z m 15.39996,0 q -2.10214,0 -3.73713,-0.908331 -1.60904,-0.934282 -2.54333,-2.569277 -0.90833,-1.634995 -0.90833,-3.737131 0,-2.128089 0.85643,-3.737131 0.88238,-1.634995 2.41356,-2.569278 1.53119,-0.934283 3.52952,-0.934283 1.97237,0 3.4257,0.908331 1.47928,0.882378 2.2838,2.465468 0.80452,1.58309 0.80452,3.60737 0,0.415237 -0.25952,0.67476 -0.25952,0.23357 -0.67476,0.23357 h -11.02973 v -1.660947 h 11.23735 l -1.11595,0.804521 q 0.026,-1.505233 -0.545,-2.699039 -0.57095,-1.193805 -1.63499,-1.868565 -1.03809,-0.67476 -2.49142,-0.67476 -1.47928,0 -2.59523,0.700712 -1.11595,0.700712 -1.73881,1.946422 -0.5969,1.219759 -0.5969,2.802849 0,1.58309 0.67476,2.802848 0.70071,1.219758 1.89452,1.92047 1.1938,0.700712 2.75094,0.700712 0.93428,0 1.86857,-0.311427 0.96023,-0.33738 1.53118,-0.830474 0.28548,-0.233571 0.64881,-0.233571 0.36333,-0.02595 0.62285,0.181667 0.33738,0.311427 0.33738,0.674759 0.026,0.363332 -0.28547,0.622855 -0.85643,0.726665 -2.17999,1.219759 -1.32357,0.467141 -2.54333,0.467141 z m 10.2614,-8.875686 q 0.0779,-1.609043 0.83047,-2.880706 0.77857,-1.271662 1.99833,-1.998327 1.24571,-0.726664 2.75094,-0.726664 1.19381,0 1.84262,0.33738 0.64881,0.33738 0.49309,0.986187 -0.10381,0.389285 -0.36333,0.519046 -0.23357,0.129762 -0.5969,0.103809 -0.33738,-0.02595 -0.77857,-0.0519 -1.45333,-0.129762 -2.59523,0.311427 -1.11595,0.415237 -1.79071,1.297615 -0.64881,0.882379 -0.64881,2.102137 z m 0.15571,8.745924 q -0.46714,0 -0.72666,-0.259523 -0.25952,-0.259523 -0.25952,-0.726664 V 16.109976 q 0,-0.467141 0.25952,-0.726664 0.25952,-0.259523 0.72666,-0.259523 0.46715,0 0.72667,0.259523 0.25952,0.259523 0.25952,0.726664 v 12.223533 q 0,0.467141 -0.25952,0.726664 -0.25952,0.259523 -0.72667,0.259523 z"
       id="path10" />
    <path
       style="fill:#b3b3b3"
       d="m 248.88907,35.392534 q -0.41523,0 -0.70071,-0.285475 -0.28547,-0.285475 -0.28547,-0.726664 0,-0.415237 0.28547,-0.726665 0.28548,-0.285475 0.70071,-0.285475 2.05024,0 2.05024,-2.024279 v -6.072838 q 0,-1.92047 1.01214,-3.036419 -0.4931,-0.570951 -0.75262,-1.323567 -0.25952,-0.752617 -0.25952,-1.738805 v -6.072838 q 0,-2.050231 -2.05024,-2.050231 -0.41523,0 -0.70071,-0.285475 -0.28547,-0.285476 -0.28547,-0.700713 0,-0.4411886 0.28547,-0.7266639 0.28548,-0.3114276 0.70071,-0.3114276 4.04856,0 4.04856,4.0745105 v 6.072838 q 0,2.050232 2.05023,2.050232 0.41524,0 0.70072,0.285475 Q 256,21.79353 256,22.234719 q 0,0.415237 -0.31142,0.700712 -0.28548,0.285475 -0.70072,0.285475 -2.05023,0 -2.05023,2.050232 v 6.072838 q 0,4.048558 -4.04856,4.048558 z"
       id="path11" />
  </g>
</svg>
